M48
; DRILL file {KiCad 9.0.3} date 2025-08-15T16:51:38+0900
; FORMAT={-:-/ absolute / metric / decimal}
; #@! TF.CreationDate,2025-08-15T16:51:38+09:00
; #@! TF.GenerationSoftware,Kicad,Pcbnew,9.0.3
; #@! TF.FileFunction,MixedPlating,1,2
FMAT,2
METRIC
; #@! TA.AperFunction,Plated,PTH,ViaDrill
T1C0.300
; #@! TA.AperFunction,Plated,PTH,ComponentDrill
T2C0.800
; #@! TA.AperFunction,Plated,PTH,ComponentDrill
T3C1.000
%
G90
G05
T1
X63.85Y-46.65
X64.05Y-68.35
X65.4Y-63.25
X65.95Y-68.95
X65.95Y-84.85
X66.35Y-44.5
X70.05Y-53.95
X71.9Y-58.0
X71.95Y-66.15
X71.95Y-74.2
X71.95Y-82.3
X72.65Y-64.0
X74.7Y-78.25
X75.5Y-46.6
X76.5Y-72.1
X81.05Y-76.4
X82.25Y-57.55
X82.4Y-80.05
X83.1Y-47.15
X83.15Y-70.9
X83.2Y-58.9
X83.2Y-83.9
X94.6Y-47.15
X94.6Y-82.55
X94.65Y-58.9
X94.65Y-70.8
X98.121Y-59.95
T2
X61.16Y-42.79
X61.16Y-50.41
X63.7Y-42.79
X63.7Y-50.41
X66.24Y-42.79
X66.24Y-50.41
X68.78Y-42.79
X68.78Y-50.41
X68.92Y-57.95
X68.92Y-62.0
X68.92Y-66.05
X68.92Y-70.1
X68.92Y-74.15
X68.92Y-78.2
X68.92Y-82.25
X68.92Y-86.3
X71.32Y-42.79
X71.32Y-50.41
X73.86Y-42.79
X73.86Y-50.41
X76.4Y-42.79
X76.4Y-50.41
X78.94Y-42.79
X78.94Y-50.41
X79.08Y-57.95
X79.08Y-62.0
X79.08Y-66.05
X79.08Y-70.1
X79.08Y-74.15
X79.08Y-78.2
X79.08Y-82.25
X79.08Y-86.3
T3
X61.99Y-58.135
X61.99Y-60.675
X61.99Y-63.215
X61.99Y-65.755
X61.99Y-68.295
X61.99Y-70.835
X61.99Y-73.375
X61.99Y-75.915
X61.99Y-78.455
X61.99Y-80.995
X61.99Y-83.535
X61.99Y-86.075
X86.81Y-43.42
X86.81Y-51.04
X86.81Y-55.225
X86.81Y-62.845
X86.81Y-67.03
X86.81Y-74.65
X86.81Y-78.835
X86.81Y-86.455
X89.35Y-43.42
X89.35Y-51.04
X89.35Y-55.225
X89.35Y-62.845
X89.35Y-67.03
X89.35Y-74.65
X89.35Y-78.835
X89.35Y-86.455
X91.89Y-43.42
X91.89Y-51.04
X91.89Y-55.225
X91.89Y-62.845
X91.89Y-67.03
X91.89Y-74.65
X91.89Y-78.835
X91.89Y-86.455
X94.43Y-43.42
X94.43Y-51.04
X94.43Y-55.225
X94.43Y-62.845
X94.43Y-67.03
X94.43Y-74.65
X94.43Y-78.835
X94.43Y-86.455
X96.97Y-43.42
X96.97Y-51.04
X96.97Y-55.225
X96.97Y-62.845
X96.97Y-67.03
X96.97Y-74.65
X96.97Y-78.835
X96.97Y-86.455
M30
